<svg width="442" height="163" viewBox="0 0 442 163" fill="none" xmlns="http://www.w3.org/2000/svg">
<path opacity="0.4" fill-rule="evenodd" clip-rule="evenodd" d="M364.052 15.7377C322.421 16.1338 267.534 23.2784 208.511 37.1737C86.9188 65.7987 -6.18235 112.233 0.563359 140.887C7.30906 169.541 111.347 169.564 232.939 140.939C354.531 112.314 447.632 65.8801 440.886 37.2261C438.408 26.6981 422.795 20.0351 398.004 17.238C397.998 17.6589 397.977 18.076 397.941 18.4889C405.774 19.3759 412.664 20.6498 418.489 22.3064C431.048 25.8786 438.155 31.0804 439.67 37.5126C441.184 43.9447 437.143 51.771 427.497 60.5708C417.94 69.2888 403.251 78.6134 384.481 87.9748C346.96 106.689 293.383 125.425 232.653 139.722C171.922 154.019 115.614 161.152 73.6842 161.142C52.7092 161.138 35.4033 159.345 22.961 155.806C10.4019 152.234 3.29436 147.032 1.7801 140.6C0.265836 134.168 4.30637 126.342 13.9529 117.542C23.5096 108.824 38.1983 99.4993 56.9683 90.1379C94.4902 71.424 148.067 52.6875 208.797 38.3904C267.73 24.5164 322.499 17.3892 364.005 16.9882C364.006 16.5676 364.021 16.1506 364.052 15.7377Z" fill="black"/>
<path d="M341.365 3.76051L341.365 3.7613L340.415 6.35581C339.656 8.43286 338.452 10.3191 336.888 11.8829C335.324 13.4467 333.438 14.6503 331.361 15.4096L328.767 16.3592L328.766 16.3595C328.634 16.4073 328.52 16.4945 328.44 16.6093C328.359 16.7241 328.316 16.8608 328.316 17.001C328.316 17.1411 328.359 17.2779 328.44 17.3927C328.52 17.5074 328.634 17.5947 328.766 17.6425L328.767 17.6428L331.361 18.5924C333.438 19.3517 335.324 20.5553 336.888 22.1191C338.452 23.6828 339.656 25.569 340.415 27.646L341.365 3.76051ZM341.365 3.76051C341.413 3.62877 341.5 3.51494 341.615 3.4345C341.729 3.35406 341.866 3.31091 342.006 3.31091C342.147 3.31091 342.283 3.35406 342.398 3.4345C342.513 3.51494 342.6 3.62877 342.648 3.76051L342.648 3.7613M341.365 3.76051L342.648 3.7613M342.648 3.7613L343.598 6.35581M342.648 3.7613L343.598 6.35581M343.598 6.35581C344.357 8.43286 345.561 10.3191 347.124 11.8829C348.688 13.4466 350.574 14.6502 352.651 15.4096L343.598 6.35581ZM341.365 30.2386L340.415 27.6462L352.652 15.4096L355.244 16.3592L355.245 16.3595C355.377 16.4073 355.49 16.4945 355.571 16.6093C355.651 16.7241 355.694 16.8608 355.694 17.001C355.694 17.1411 355.651 17.2779 355.571 17.3927C355.49 17.5074 355.377 17.5947 355.245 17.6425L355.244 17.6428L352.652 18.5924C350.574 19.3517 348.688 20.5553 347.124 22.1191C345.561 23.6829 344.357 25.5691 343.598 27.6462L342.648 30.2386L342.648 30.2395C342.6 30.3712 342.513 30.4851 342.398 30.5655C342.283 30.6459 342.147 30.6891 342.006 30.6891C341.866 30.6891 341.729 30.6459 341.615 30.5655C341.5 30.4851 341.413 30.3712 341.365 30.2395L341.365 30.2386Z" fill="black" stroke="black" stroke-width="0.621812"/>
<circle cx="381.005" cy="17" r="16.375" stroke="black" stroke-width="1.25"/>
<mask id="path-4-outside-1_23_2" maskUnits="userSpaceOnUse" x="372.005" y="10" width="19" height="13" fill="black">
<rect fill="white" x="372.005" y="10" width="19" height="13"/>
<path d="M376.262 19.885L379.112 14.29H381.407L377.282 22H374.657L373.232 14.29H375.407L376.262 19.885ZM380.641 22L380.926 20.335L385.471 16.99C386.491 16.225 387.451 15.52 387.451 14.47C387.451 13.615 386.881 13.21 386.041 13.21C384.976 13.21 384.211 13.915 383.986 15.205H381.811C382.261 12.655 383.836 11.395 386.101 11.395C388.426 11.395 389.626 12.565 389.626 14.32C389.626 16.105 388.426 17.26 386.791 18.355L384.121 20.185H388.681L388.351 22H380.641Z"/>
</mask>
<path d="M376.262 19.885L379.112 14.29H381.407L377.282 22H374.657L373.232 14.29H375.407L376.262 19.885ZM380.641 22L380.926 20.335L385.471 16.99C386.491 16.225 387.451 15.52 387.451 14.47C387.451 13.615 386.881 13.21 386.041 13.21C384.976 13.21 384.211 13.915 383.986 15.205H381.811C382.261 12.655 383.836 11.395 386.101 11.395C388.426 11.395 389.626 12.565 389.626 14.32C389.626 16.105 388.426 17.26 386.791 18.355L384.121 20.185H388.681L388.351 22H380.641Z" fill="black"/>
<path d="M376.262 19.885L375.565 19.9915L375.896 22.1559L376.89 20.2049L376.262 19.885ZM379.112 14.29V13.5853H378.68L378.484 13.9701L379.112 14.29ZM381.407 14.29L382.028 14.6224L382.583 13.5853H381.407V14.29ZM377.282 22V22.7047H377.704L377.903 22.3324L377.282 22ZM374.657 22L373.964 22.1281L374.07 22.7047H374.657V22ZM373.232 14.29V13.5853H372.385L372.539 14.4181L373.232 14.29ZM375.407 14.29L376.103 14.1835L376.012 13.5853H375.407V14.29ZM376.89 20.2049L379.74 14.6099L378.484 13.9701L375.634 19.5651L376.89 20.2049ZM379.112 14.9947H381.407V13.5853H379.112V14.9947ZM380.785 13.9576L376.66 21.6676L377.903 22.3324L382.028 14.6224L380.785 13.9576ZM377.282 21.2953H374.657V22.7047H377.282V21.2953ZM375.35 21.8719L373.925 14.1619L372.539 14.4181L373.964 22.1281L375.35 21.8719ZM373.232 14.9947H375.407V13.5853H373.232V14.9947ZM374.71 14.3965L375.565 19.9915L376.958 19.7785L376.103 14.1835L374.71 14.3965ZM380.641 22L379.947 21.8811L379.806 22.7047H380.641V22ZM380.926 20.335L380.508 19.7674L380.28 19.9359L380.232 20.2161L380.926 20.335ZM385.471 16.99L385.889 17.5576L385.894 17.5538L385.471 16.99ZM383.986 15.205V15.9097H384.579L384.68 15.3261L383.986 15.205ZM381.811 15.205L381.117 15.0825L380.971 15.9097H381.811V15.205ZM386.791 18.355L386.399 17.7694L386.393 17.7737L386.791 18.355ZM384.121 20.185L383.723 19.6037L381.846 20.8897H384.121V20.185ZM388.681 20.185L389.375 20.3111L389.526 19.4803H388.681V20.185ZM388.351 22V22.7047H388.939L389.045 22.1261L388.351 22ZM381.336 22.1189L381.621 20.4539L380.232 20.2161L379.947 21.8811L381.336 22.1189ZM381.344 20.9026L385.889 17.5576L385.053 16.4224L380.508 19.7674L381.344 20.9026ZM385.894 17.5538C386.387 17.1842 386.943 16.7744 387.365 16.3116C387.799 15.8348 388.156 15.2341 388.156 14.47H386.746C386.746 14.7559 386.623 15.0327 386.323 15.3621C386.01 15.7056 385.576 16.0308 385.048 16.4262L385.894 17.5538ZM388.156 14.47C388.156 13.8749 387.95 13.3461 387.515 12.98C387.099 12.6303 386.564 12.5053 386.041 12.5053V13.9147C386.359 13.9147 386.529 13.9922 386.608 14.0587C386.667 14.1089 386.746 14.2101 386.746 14.47H388.156ZM386.041 12.5053C385.343 12.5053 384.706 12.7408 384.211 13.2147C383.724 13.6809 383.423 14.3305 383.292 15.0839L384.68 15.3261C384.774 14.7895 384.968 14.4416 385.186 14.2328C385.396 14.0317 385.674 13.9147 386.041 13.9147V12.5053ZM383.986 14.5003H381.811V15.9097H383.986V14.5003ZM382.505 15.3275C382.709 14.1713 383.154 13.3804 383.736 12.8769C384.317 12.3752 385.102 12.0997 386.101 12.0997V10.6903C384.835 10.6903 383.701 11.0448 382.815 11.8106C381.931 12.5746 381.363 13.6887 381.117 15.0825L382.505 15.3275ZM386.101 12.0997C387.153 12.0997 387.85 12.3643 388.274 12.7319C388.685 13.0885 388.921 13.6117 388.921 14.32H390.331C390.331 13.2733 389.967 12.334 389.197 11.6668C388.44 11.0107 387.375 10.6903 386.101 10.6903V12.0997ZM388.921 14.32C388.921 15.7181 388.013 16.6886 386.399 17.7695L387.183 18.9405C388.839 17.8314 390.331 16.4919 390.331 14.32H388.921ZM386.393 17.7737L383.723 19.6037L384.52 20.7663L387.19 18.9363L386.393 17.7737ZM384.121 20.8897H388.681V19.4803H384.121V20.8897ZM387.988 20.0589L387.658 21.8739L389.045 22.1261L389.375 20.3111L387.988 20.0589ZM388.351 21.2953H380.641V22.7047H388.351V21.2953Z" fill="black" mask="url(#path-4-outside-1_23_2)"/>
<path d="M222.279 131.902L220.503 129.784L218.728 131.902C206.543 146.44 188.223 155.684 167.733 155.684C131.047 155.684 101.32 126.046 101.32 89.5007C101.32 52.9561 131.047 23.3175 167.733 23.3175C188.223 23.3175 206.543 32.5619 218.728 47.0993L220.503 49.2176L222.279 47.0993C234.464 32.5619 252.784 23.3175 273.274 23.3175C309.959 23.3175 339.687 52.9561 339.687 89.5007C339.687 126.046 309.959 155.684 273.274 155.684C252.784 155.684 234.464 146.44 222.279 131.902ZM167.733 128.4C185.094 128.4 199.809 117.098 204.874 101.467H236.133C241.198 117.098 255.913 128.4 273.274 128.4C294.818 128.4 312.296 110.992 312.296 89.5007C312.296 68.0097 294.818 50.6012 273.274 50.6012C255.913 50.6012 241.198 61.9033 236.133 77.5346H204.874C199.809 61.9032 185.094 50.6012 167.733 50.6012C146.189 50.6012 128.711 68.0097 128.711 89.5007C128.711 110.992 146.189 128.4 167.733 128.4Z" fill="black" stroke="black" stroke-width="4.6335"/>
</svg>
